<?xml version="1.0" standalone="no"?>
<!DOCTYPE svg PUBLIC "-//W3C//DTD SVG 20010904//EN"
 "http://www.w3.org/TR/2001/REC-SVG-20010904/DTD/svg10.dtd">
<svg version="1.0" xmlns="http://www.w3.org/2000/svg"
 width="400.000000pt" height="400.000000pt" viewBox="0 0 400.000000 400.000000"
 preserveAspectRatio="xMidYMid meet">
<metadata>
Created by potrace 1.11, written by Peter Selinger 2001-2013
</metadata>
<g transform="translate(0.000000,400.000000) scale(0.100000,-0.100000)"
fill="#000000" stroke="none">
<path d="M0 3652 l0 -349 60 -16 c33 -10 60 -22 60 -27 0 -13 -90 -10 -107 3
-10 7 -13 0 -13 -27 0 -31 3 -36 23 -36 12 0 54 -9 92 -19 39 -11 103 -23 142
-27 40 -3 71 -10 68 -14 -6 -10 163 -22 205 -14 19 4 40 11 47 16 8 6 19 2 32
-11 12 -12 34 -21 51 -21 39 0 80 -27 80 -51 0 -11 5 -19 10 -19 6 0 10 5 10
10 0 6 9 10 20 10 11 0 20 -7 20 -15 0 -16 25 -21 34 -6 6 9 120 5 212 -7 7
-1 15 -13 18 -27 4 -17 14 -25 29 -26 54 -3 121 -26 174 -60 26 -16 57 -29 69
-29 36 0 54 -11 54 -31 0 -10 5 -19 10 -19 6 0 10 -7 10 -15 0 -8 7 -15 16
-15 8 0 13 -4 9 -10 -3 -5 -12 -7 -20 -4 -11 5 -14 -10 -14 -73 l0 -79 29 2
c20 1 31 -3 35 -16 10 -32 -5 -49 -51 -56 -54 -8 -74 -1 -74 26 0 24 -25 27
-34 4 -3 -9 -6 -27 -6 -42 0 -21 -2 -23 -12 -13 -7 6 -13 16 -13 22 0 5 -4 8
-10 7 -16 -4 7 -78 25 -78 5 0 10 -5 10 -11 0 -7 -9 -9 -21 -6 -12 3 -22 0
-26 -9 -3 -8 -11 -14 -19 -14 -8 0 -14 -5 -14 -11 0 -8 -12 -10 -34 -6 -19 3
-39 0 -45 -6 -8 -8 -11 -7 -11 6 0 13 -9 17 -34 17 -19 0 -38 5 -41 10 -3 6 3
10 14 10 25 0 28 26 5 51 -14 16 -14 18 4 23 25 8 63 2 94 -15 20 -11 20 -14
6 -17 -23 -5 -23 -22 0 -22 13 0 14 -2 4 -9 -21 -13 10 -21 45 -12 l28 8 -29
12 c-20 8 -26 16 -21 28 3 10 3 14 -1 10 -4 -4 -13 2 -21 13 -12 18 -26 20
-109 20 -65 0 -93 -3 -89 -11 4 -6 13 -8 19 -6 7 3 19 1 27 -4 10 -6 4 -9 -21
-10 -19 -1 -41 -1 -48 0 -6 1 -12 -1 -12 -4 0 -11 41 -45 54 -45 26 0 27 -19
2 -26 l-25 -6 31 -28 c17 -15 28 -33 24 -38 -10 -16 21 -34 46 -27 21 7 21 7
5 -9 -27 -28 -20 -35 30 -31 42 4 46 3 31 -9 -10 -7 -15 -16 -11 -19 11 -12
71 -7 76 6 3 8 11 3 25 -13 l21 -25 1 30 c1 26 2 27 11 12 8 -13 7 -22 -2 -33
-9 -11 -10 -17 -1 -23 7 -4 8 -12 2 -21 -8 -13 -12 -12 -24 5 -9 11 -16 23
-16 28 0 4 -6 7 -14 7 -14 0 -31 -29 -21 -38 2 -3 7 3 11 12 11 28 25 6 18
-30 -5 -27 -3 -34 10 -34 9 0 16 4 16 9 0 5 10 11 23 13 16 2 22 9 21 26 0 12
3 22 8 22 7 0 12 -15 9 -32 -1 -8 12 -10 89 -13 22 -1 45 -6 51 -12 8 -8 24
-4 57 13 25 14 52 22 59 19 8 -2 16 2 19 10 4 8 10 15 16 15 5 0 6 -4 3 -10
-3 -5 1 -10 9 -10 9 0 16 5 16 10 0 6 14 10 30 10 17 0 30 5 30 10 0 11 33 14
44 3 7 -7 -49 -63 -65 -63 -5 0 -8 -3 -8 -7 3 -21 -2 -33 -16 -33 -8 0 -15 5
-15 12 0 7 -6 6 -17 -4 -10 -9 -24 -13 -32 -10 -8 3 -11 0 -7 -7 4 -6 -3 -16
-18 -22 -34 -16 -22 -32 17 -24 31 7 31 6 12 -9 -26 -20 -74 -21 -81 -1 -4 8
-11 12 -16 9 -6 -4 -5 -10 3 -15 12 -8 11 -11 -1 -19 -8 -6 -24 -9 -35 -7 -11
1 -25 -5 -32 -13 -6 -8 -15 -11 -19 -7 -5 4 -2 12 6 17 12 7 7 11 -18 16 -18
4 -34 10 -37 14 -6 9 46 7 61 -3 7 -4 19 4 28 19 12 18 23 23 37 19 11 -4 19
-2 19 4 0 6 8 11 17 11 15 0 14 2 -3 15 -25 19 -40 19 -24 0 8 -9 9 -15 2 -15
-6 0 -13 4 -16 9 -3 5 -24 5 -48 0 -24 -5 -72 -14 -108 -20 -36 -6 -84 -17
-108 -25 -24 -8 -48 -12 -53 -9 -5 4 -9 1 -9 -6 0 -8 16 -10 55 -6 30 3 53 3
51 -1 -2 -4 9 -7 25 -8 15 -1 27 2 24 6 -2 3 9 4 26 2 16 -2 29 -9 29 -14 0
-5 9 -6 20 -3 30 9 24 -4 -7 -16 -20 -7 -28 -6 -35 3 -6 10 -8 9 -8 -3 0 -21
22 -30 41 -18 19 12 32 11 24 -1 -8 -13 1 -13 24 -1 20 11 50 -2 32 -13 -6 -4
-11 -13 -11 -19 0 -8 4 -7 9 2 8 12 12 12 25 2 8 -7 19 -10 25 -7 5 3 12 -1
15 -10 9 -23 8 -24 -16 -25 -22 0 -22 -1 -3 -8 13 -6 23 -4 28 5 5 9 17 12 32
8 20 -5 27 -1 36 20 7 14 19 26 28 25 10 0 12 -2 4 -6 -7 -2 -13 -10 -13 -17
0 -19 -31 -44 -60 -48 -15 -2 -26 -11 -28 -22 -4 -19 -3 -19 23 -2 20 13 30
15 38 7 8 -8 3 -19 -18 -41 -16 -16 -25 -33 -20 -37 4 -5 10 -2 12 5 3 6 9 10
14 6 5 -3 9 3 9 12 0 10 3 15 6 11 3 -3 24 5 45 19 22 13 53 27 69 31 16 3 35
12 41 19 6 8 17 14 25 14 7 0 17 6 21 14 10 17 123 28 117 11 -3 -6 -23 -20
-46 -29 -41 -19 -83 -58 -83 -80 0 -6 -11 -22 -25 -36 -17 -17 -20 -25 -10
-28 7 -3 19 3 26 13 15 20 44 14 44 -10 0 -8 7 -15 16 -15 10 0 14 -6 10 -15
-3 -8 0 -15 6 -15 12 0 -21 -29 -34 -30 -4 0 -10 9 -13 20 -3 11 -11 20 -17
20 -5 0 -8 -7 -4 -15 3 -10 -1 -15 -13 -15 -10 0 -21 7 -25 15 -7 19 -36 20
-36 1 0 -15 -27 -30 -46 -27 -7 1 -11 -7 -10 -16 0 -12 -7 -19 -22 -21 -19 -3
-21 -6 -11 -18 6 -8 17 -14 24 -14 8 0 15 -4 17 -10 2 -6 20 -5 48 1 25 6 84
11 133 12 51 0 87 5 87 11 0 6 5 5 12 -2 7 -7 21 -12 31 -12 10 0 31 -6 45
-14 66 -34 77 -36 111 -26 19 5 37 7 42 4 4 -2 25 -6 46 -8 21 -2 46 -7 56
-11 11 -5 17 -3 17 6 0 8 7 26 14 41 8 15 11 30 6 33 -5 3 -41 8 -81 11 -67 5
-70 4 -65 -14 4 -11 0 -24 -9 -32 -15 -13 -20 -5 -16 28 1 7 -11 12 -33 12
-19 0 -38 5 -41 10 -4 6 -22 8 -41 5 -19 -3 -50 -8 -70 -11 -24 -3 -34 -2 -29
5 3 6 1 11 -6 11 -14 0 -38 30 -39 48 0 6 9 12 20 12 11 0 20 -5 20 -11 0 -12
42 -2 51 13 3 5 16 10 27 11 16 1 22 8 22 24 0 25 27 43 39 26 3 -6 21 -10 40
-11 19 0 65 -6 103 -12 38 -7 80 -9 93 -6 14 4 25 2 25 -4 0 -5 -7 -10 -15
-10 -8 0 -15 -4 -15 -10 0 -5 19 -10 43 -9 37 0 40 2 20 11 -13 6 -23 15 -23
20 0 16 106 13 127 -3 8 -7 19 -7 32 1 24 12 27 26 9 33 -10 4 -9 6 1 6 8 1
20 -7 28 -16 10 -13 16 -15 19 -5 11 24 109 10 100 -15 -3 -7 1 -16 10 -20 22
-8 29 4 13 23 -13 16 -10 17 33 12 34 -4 48 -2 52 8 4 10 -3 14 -25 14 -19 0
-28 4 -24 11 4 6 -1 17 -11 24 -18 14 -18 14 3 15 12 0 25 4 28 10 7 12 -38
24 -65 17 -11 -3 -24 1 -31 9 -13 16 -124 20 -133 5 -7 -11 -117 -24 -191 -22
-88 2 -136 11 -128 23 3 7 1 8 -6 4 -18 -12 -61 2 -61 19 0 18 -17 20 -23 3
-2 -7 -7 -11 -9 -8 -3 3 -1 16 4 30 8 22 11 23 21 9 17 -22 43 -29 55 -17 8 8
35 8 97 -2 65 -10 88 -11 97 -2 7 7 28 12 48 12 20 0 41 5 47 11 6 6 19 9 29
6 17 -4 17 -6 -3 -12 -13 -4 -23 -11 -23 -15 0 -15 30 -19 55 -8 28 13 33 28
9 28 -10 0 -14 6 -11 14 4 11 -9 19 -48 30 -29 9 -58 16 -64 16 -6 0 -11 10
-11 21 0 16 3 19 13 11 19 -16 96 -32 103 -21 3 5 16 9 30 9 16 0 24 6 25 18
0 14 2 14 9 -3 5 -11 9 -14 9 -7 1 6 6 12 12 12 5 0 7 -4 4 -10 -4 -6 6 -10
23 -10 20 0 33 -7 41 -22 8 -16 10 -17 6 -4 -3 10 1 26 9 35 14 15 11 16 -25
13 -43 -5 -48 2 -21 31 16 20 16 20 -1 14 -54 -20 -65 -19 -69 5 -3 20 -10 24
-58 29 -36 4 -45 7 -25 9 17 1 34 2 39 1 4 -1 14 4 22 10 11 9 18 8 32 -5 24
-21 60 -21 84 1 15 14 23 15 36 5 9 -6 36 -21 60 -34 36 -18 43 -26 39 -45 -5
-27 5 -29 27 -8 18 19 50 19 65 2 6 -8 23 -12 43 -9 30 5 30 6 12 19 -16 11
-16 15 -5 23 8 4 24 4 37 0 12 -5 24 -7 26 -5 7 8 -5 95 -14 95 -5 0 -14 -13
-19 -30 -8 -22 -17 -30 -34 -30 -13 0 -27 5 -30 10 -3 6 -16 10 -29 10 -30 0
-46 18 -46 52 l0 28 76 0 c64 0 75 2 70 15 -3 9 0 15 10 15 8 0 19 -10 24 -22
8 -22 9 -22 9 5 1 33 10 34 41 5 18 -17 35 -22 69 -21 124 5 160 3 201 -9 33
-10 69 -12 130 -7 47 4 93 8 103 8 9 1 17 7 17 15 0 15 21 26 49 26 10 0 44 9
77 21 70 24 222 51 282 49 l42 -1 0 696 c0 382 -4 695 -8 695 -5 0 -16 -15
-25 -32 l-16 -33 6 35 c3 19 14 52 24 72 14 26 19 59 19 113 l0 75 -845 0
-845 0 0 -64 c0 -99 11 -186 25 -186 6 0 24 -13 39 -29 28 -29 28 -30 17 -98
-7 -44 -7 -69 -1 -71 14 -5 12 -30 -2 -35 -10 -3 -12 -31 -11 -104 l2 -99 -33
-14 c-25 -9 -33 -18 -28 -29 5 -14 2 -13 -15 2 -20 17 -43 78 -43 112 0 10 -7
26 -15 35 -16 17 -18 46 -9 126 l6 52 -48 16 c-70 24 -74 22 -74 -26 0 -27 -7
-49 -19 -62 -10 -12 -24 -43 -30 -71 -11 -43 -10 -51 4 -61 24 -18 8 -37 -24
-29 -32 8 -52 24 -49 39 1 6 -10 24 -25 40 -15 16 -27 39 -27 52 0 13 -9 29
-21 36 -27 17 -58 68 -56 92 1 10 -4 21 -10 23 -8 3 -13 -3 -13 -14 0 -25 -42
-106 -57 -111 -9 -2 -13 8 -14 30 -5 214 -16 338 -31 338 -5 0 -14 14 -19 30
-15 42 -26 37 -33 -15 -5 -29 -12 -45 -22 -45 -8 0 -14 -4 -14 -10 0 -5 5 -10
10 -10 6 0 10 -13 10 -30 0 -23 -4 -30 -20 -30 -17 0 -19 5 -14 24 4 16 -2 38
-18 65 -18 31 -20 43 -11 52 10 10 15 6 23 -16 15 -38 22 -26 24 40 l1 55
-832 0 -833 0 0 -348z m2436 -31 c-13 -20 -26 -11 -26 16 0 25 1 26 16 11 9
-9 13 -21 10 -27z m-2280 -125 c79 -39 112 -62 102 -71 -3 -4 -20 1 -38 10
-18 9 -34 14 -37 11 -3 -3 2 -8 11 -12 9 -3 16 -12 16 -20 0 -16 -16 -19 -25
-4 -3 6 -17 10 -31 10 -17 0 -27 8 -34 25 -5 14 -16 28 -24 31 -9 3 -12 12 -9
21 4 10 2 14 -4 10 -6 -4 -13 0 -17 8 -8 23 14 18 90 -19z m1734 -65 c0 -18
-18 -21 -30 -6 -10 13 -9 15 9 15 11 0 21 -4 21 -9z m38 -29 c6 -18 -15 -14
-22 4 -4 10 -1 14 6 12 6 -2 14 -10 16 -16z m62 -96 c0 -11 -19 -15 -25 -6 -3
5 1 10 9 10 9 0 16 -2 16 -4z m40 -6 c0 -5 -5 -10 -11 -10 -5 0 -7 5 -4 10 3
6 8 10 11 10 2 0 4 -4 4 -10z m-1788 -51 c45 -10 67 -24 55 -35 -3 -3 -13 -1
-24 5 -10 5 -39 15 -65 22 -27 6 -48 16 -48 21 0 6 8 7 17 3 10 -3 39 -11 65
-16z m3646 -21 c-6 -18 -28 -21 -28 -4 0 9 7 16 16 16 9 0 14 -5 12 -12z
m-3248 -8 c0 -5 -2 -10 -4 -10 -3 0 -8 5 -11 10 -3 6 -1 10 4 10 6 0 11 -4 11
-10z m1703 -41 c-8 -8 -18 -6 -37 6 -30 20 -33 32 -8 38 24 5 60 -29 45 -44z
m-575 -217 c-16 -2 -28 -9 -28 -16 0 -9 -14 -14 -42 -14 -59 0 -108 7 -108 17
0 12 81 21 99 12 9 -5 31 -3 51 4 19 7 40 10 45 6 6 -3 -2 -7 -17 -9z m-321
-88 c-3 -3 -12 -4 -19 -1 -8 3 -5 6 6 6 11 1 17 -2 13 -5z m117 -126 c-4 -113
-4 -107 -14 -83 -7 17 -9 17 -9 3 -1 -25 -31 -23 -31 2 0 12 7 20 16 20 14 0
15 7 10 40 -4 25 -2 40 4 40 5 0 10 16 10 35 0 19 4 35 8 35 5 0 7 -42 6 -92z
m-34 54 c0 -16 -44 -56 -48 -43 -2 6 2 18 8 26 10 12 9 15 -4 15 -9 0 -16 -5
-16 -11 0 -5 -5 -7 -10 -4 -6 4 -8 11 -5 16 7 11 75 12 75 1z m-40 -152 c0 -5
-2 -10 -4 -10 -3 0 -8 5 -11 10 -3 6 -1 10 4 10 6 0 11 -4 11 -10z m1223 -61
c-10 -10 -85 0 -79 10 3 4 23 5 46 3 23 -3 38 -8 33 -13z m-1223 -24 c0 -8 -2
-15 -4 -15 -2 0 -6 7 -10 15 -3 8 -1 15 4 15 6 0 10 -7 10 -15z m980 -5 c0 -5
-4 -10 -10 -10 -5 0 -10 5 -10 10 0 6 5 10 10 10 6 0 10 -4 10 -10z m267 -27
c-8 -7 -37 9 -31 19 3 5 12 4 20 -3 8 -6 13 -14 11 -16z m-1136 -23 c-19 -3
-36 -11 -39 -19 -3 -10 3 -12 27 -6 18 4 31 3 31 -3 0 -11 -99 -25 -151 -21
-19 1 -41 -1 -49 -4 -33 -12 -60 -15 -60 -6 0 5 0 12 0 17 0 8 5 9 55 11 37 1
48 16 18 24 -10 3 -1 5 19 6 21 1 38 -4 41 -11 3 -10 12 -9 38 4 41 20 69 26
89 19 9 -3 1 -8 -19 -11z m1185 5 c16 -12 16 -14 3 -15 -9 0 -22 7 -29 15 -16
19 0 19 26 0z m-1766 -5 c0 -5 -4 -10 -10 -10 -5 0 -10 5 -10 10 0 6 5 10 10
10 6 0 10 -4 10 -10z m653 -17 c-7 -2 -19 -2 -25 0 -7 3 -2 5 12 5 14 0 19 -2
13 -5z m-320 -132 c-4 -15 -41 -41 -59 -41 -4 0 58 59 63 60 0 0 -1 -8 -4 -19z
m259 -13 c-9 -9 -15 -9 -24 0 -10 10 -10 15 2 22 9 6 19 5 24 0 7 -7 6 -14 -2
-22z m593 22 c3 -5 46 -10 96 -10 53 0 89 -4 89 -10 0 -6 36 -10 88 -11 48 0
80 -3 72 -6 -8 -3 -21 -12 -27 -21 -12 -14 -16 -14 -47 0 -19 10 -44 14 -57
11 -25 -7 -86 -47 -106 -71 -10 -12 -14 -12 -28 2 -23 23 -55 21 -55 -4 0 -26
-22 -26 -38 1 -7 11 -18 18 -25 16 -7 -2 -19 5 -29 15 -10 12 -19 15 -23 8 -3
-5 -1 -10 4 -10 6 0 11 -5 11 -11 0 -8 -4 -8 -14 0 -7 6 -22 8 -32 4 -11 -4 2
11 28 33 31 25 46 45 44 57 -3 12 2 17 19 17 13 0 27 -4 30 -10z m-112 -14 c3
3 8 1 12 -5 3 -6 -2 -11 -13 -11 -11 0 -22 -7 -26 -15 -3 -8 -1 -15 5 -15 24
0 -4 -18 -37 -24 -25 -5 -43 -3 -60 9 -31 20 -31 39 0 33 14 -3 31 -1 38 3 9
6 4 9 -14 9 -15 0 -29 4 -33 9 -7 12 72 19 101 9 12 -4 24 -4 27 -2z m-644
-17 c-7 -4 -17 -5 -22 -2 -5 3 -3 9 4 14 7 4 17 5 22 2 5 -3 3 -9 -4 -14z
m1271 1 c0 -5 -9 -10 -19 -10 -11 0 -23 5 -26 10 -4 6 5 10 19 10 14 0 26 -4
26 -10z m-1265 -37 c-8 -7 -18 -13 -23 -13 -6 0 -12 -5 -14 -11 -3 -8 -11 -8
-28 2 -14 8 -27 15 -29 16 -1 1 -1 5 2 10 3 4 28 8 55 9 42 1 48 -1 37 -13z
m441 1 c-3 -9 -6 -19 -6 -24 0 -4 -20 -28 -45 -53 -35 -36 -54 -47 -90 -53
-25 -3 -49 -4 -52 0 -4 3 3 6 15 6 26 0 29 16 5 24 -10 3 -1 3 19 0 20 -2 39
0 43 6 3 5 -1 10 -9 10 -35 0 -14 28 29 39 28 7 51 20 61 36 18 28 40 34 30 9z
m64 -24 c0 -5 -7 -10 -15 -10 -8 0 -15 5 -15 10 0 6 7 10 15 10 8 0 15 -4 15
-10z m520 -20 c0 -5 -5 -10 -11 -10 -5 0 -7 5 -4 10 3 6 8 10 11 10 2 0 4 -4
4 -10z m2 -52 c-15 -15 -26 -4 -18 18 5 13 9 15 18 6 9 -9 9 -15 0 -24z m-192
14 c0 -4 14 -13 32 -21 27 -12 29 -15 13 -21 -29 -10 -67 0 -61 16 3 8 1 14
-5 14 -6 0 -7 5 -4 10 7 12 25 13 25 2z m-95 -39 c-8 -7 -21 -10 -29 -7 -12 5
-15 2 -10 -10 4 -10 17 -15 40 -14 19 1 31 5 27 11 -4 7 1 8 13 3 10 -4 36
-13 57 -19 20 -7 36 -16 34 -20 -4 -12 -116 -17 -123 -6 -3 5 -17 6 -30 3 -19
-5 -25 -3 -23 7 3 22 -12 49 -27 49 -10 0 -13 -10 -9 -37 4 -33 3 -35 -5 -13
-10 25 -13 26 -78 22 -37 -2 -71 -8 -75 -12 -10 -9 -67 11 -67 23 0 5 42 8 95
5 52 -2 95 -1 95 3 0 4 -12 10 -27 12 -23 3 -21 4 9 6 20 0 40 6 44 12 4 7 22
9 45 6 26 -3 39 -1 39 6 0 7 4 6 9 -2 6 -9 4 -19 -4 -28z m-217 0 c-10 -2 -26
-2 -35 0 -10 3 -2 5 17 5 19 0 27 -2 18 -5z m-135 -9 c11 -11 -3 -24 -18 -18
-8 4 -12 10 -9 15 6 11 18 12 27 3z m625 -18 c3 -3 -26 -6 -64 -5 -46 0 -62 3
-49 9 21 8 103 5 113 -4z m411 5 c8 -5 -10 -7 -44 -5 -32 2 -60 6 -63 9 -9 9
92 5 107 -4z m-1199 -21 c0 -5 -5 -10 -11 -10 -5 0 -7 5 -4 10 3 6 8 10 11 10
2 0 4 -4 4 -10z m330 -14 c0 -9 -7 -12 -20 -9 -11 3 -17 9 -14 14 8 14 34 10
34 -5z m454 -21 c-4 -8 -8 -15 -10 -15 -2 0 -4 7 -4 15 0 8 4 15 10 15 5 0 7
-7 4 -15z m-779 -25 c3 -5 1 -10 -5 -10 -6 0 -9 -4 -6 -8 6 -10 -19 -13 -52
-6 -13 3 -20 9 -16 15 3 6 17 9 30 6 13 -2 24 0 24 4 0 12 17 11 25 -1z m234
-7 c9 -15 12 -16 20 -4 10 15 35 6 26 -10 -8 -13 9 -11 22 2 12 12 33 4 33
-12 0 -5 -7 -9 -15 -9 -8 0 -15 -4 -15 -10 0 -14 -69 -30 -93 -21 -12 5 -46 6
-76 3 -39 -3 -52 -2 -47 7 4 6 3 11 -3 11 -5 0 -12 -5 -14 -10 -3 -6 -4 -5 -3
2 2 8 16 12 37 10 29 -2 31 -1 16 9 -11 6 -33 8 -53 5 -49 -10 -42 9 8 22 43
11 63 8 53 -9 -4 -5 1 -9 10 -9 8 0 18 7 22 16 4 11 13 14 32 9 19 -4 22 -3
11 5 -13 8 -13 10 2 10 9 0 22 -8 27 -17z m219 2 c-2 -5 -10 -10 -18 -11 -56
-8 -82 -11 -67 -7 9 2 17 8 17 13 0 9 35 18 58 16 7 0 12 -5 10 -11z m172 -6
c7 -11 9 -23 7 -26 -3 -2 -8 5 -12 17 -4 13 -12 19 -21 16 -9 -3 -12 -1 -9 4
10 16 23 12 35 -11z m35 11 c3 -5 1 -10 -4 -10 -6 0 -11 5 -11 10 0 6 2 10 4
10 3 0 8 -4 11 -10z m-612 -7 c-7 -2 -19 -2 -25 0 -7 3 -2 5 12 5 14 0 19 -2
13 -5z m-188 -62 c-3 -6 -11 -8 -17 -5 -6 4 -5 9 3 15 16 10 23 4 14 -10z m45
9 c0 -5 -5 -10 -11 -10 -5 0 -7 5 -4 10 3 6 8 10 11 10 2 0 4 -4 4 -10z m129
1 c22 -6 23 -8 8 -23 -9 -8 -13 -18 -10 -22 4 -3 -1 -6 -10 -6 -9 0 -17 -4
-17 -10 0 -16 18 -12 32 8 7 10 21 21 30 25 15 5 16 4 6 -13 -20 -32 -54 -42
-91 -26 -25 11 -27 15 -11 15 37 2 61 41 24 41 -11 0 -20 -5 -20 -12 0 -6 -2
-9 -5 -6 -3 3 -3 13 1 22 6 17 22 19 63 7z m-152 -43 c-3 -8 -6 -5 -6 6 -1 11
2 17 5 13 3 -3 4 -12 1 -19z m49 -37 c-4 -5 0 -11 6 -14 7 -2 10 -8 6 -12 -4
-4 -14 0 -22 8 -12 12 -13 17 -3 20 18 8 19 8 13 -2z m54 -5 c0 -11 -19 -15
-25 -6 -3 5 1 10 9 10 9 0 16 -2 16 -4z m878 -57 c-2 -6 -8 -10 -13 -10 -5 0
-11 4 -13 10 -2 6 4 11 13 11 9 0 15 -5 13 -11z m-738 -9 c0 -5 -5 -10 -11
-10 -5 0 -7 5 -4 10 3 6 8 10 11 10 2 0 4 -4 4 -10z m841 -13 c-1 -12 -15 -9
-19 4 -3 6 1 10 8 8 6 -3 11 -8 11 -12z m-380 -22 c-1 -15 -24 -12 -29 3 -3 9
2 13 12 10 10 -1 17 -7 17 -13z m-361 -5 c0 -5 -4 -10 -10 -10 -5 0 -10 5 -10
10 0 6 5 10 10 10 6 0 10 -4 10 -10z m-229 -143 c-1 -12 -15 -9 -19 4 -3 6 1
10 8 8 6 -3 11 -8 11 -12z m574 -7 c3 -5 1 -10 -4 -10 -6 0 -11 5 -11 10 0 6
2 10 4 10 3 0 8 -4 11 -10z"/>
<path d="M130 3482 c0 -12 19 -26 26 -19 2 2 -2 10 -11 17 -9 8 -15 8 -15 2z"/>
<path d="M2324 2323 c10 -10 -15 -33 -35 -33 -11 0 -19 -4 -19 -10 0 -14 26
-12 42 3 7 7 21 18 32 24 17 10 17 10 -4 16 -12 3 -19 3 -16 0z"/>
<path d="M1791 3774 c0 -11 3 -14 6 -6 3 7 2 16 -1 19 -3 4 -6 -2 -5 -13z"/>
<path d="M1346 2744 c-9 -22 -7 -102 2 -107 4 -3 7 24 7 59 0 35 0 64 -1 64
-1 0 -5 -7 -8 -16z"/>
<path d="M1226 2527 c3 -10 9 -15 12 -12 3 3 0 11 -7 18 -10 9 -11 8 -5 -6z"/>
<path d="M491 2399 c17 -11 39 -12 39 -1 0 4 -12 8 -27 9 -19 1 -22 -1 -12 -8z"/>
<path d="M990 2280 c0 -5 7 -10 15 -10 8 0 14 -3 13 -7 -2 -10 10 -51 24 -80
9 -19 14 -20 37 -10 14 6 29 16 33 22 5 6 8 3 8 -7 0 -10 -6 -18 -12 -19 -7 0
-4 -4 7 -9 19 -9 19 -9 -3 -16 -17 -5 -20 -9 -11 -14 24 -16 39 1 39 44 0 23
5 47 12 54 10 10 6 18 -15 39 l-27 28 0 -28 c0 -16 4 -26 10 -22 21 13 8 -11
-15 -28 -22 -15 -25 -16 -25 -2 0 8 -4 15 -10 15 -5 0 -10 5 -10 11 0 6 7 8
16 5 11 -4 15 -2 11 8 -3 8 -1 17 6 20 7 3 2 3 -10 1 -12 -3 -24 -1 -28 5 -8
13 -65 13 -65 0z m80 -91 c0 -5 -4 -9 -10 -9 -5 0 -10 7 -10 16 0 8 5 12 10 9
6 -3 10 -10 10 -16z"/>
<path d="M3593 2213 c-28 -10 16 -33 64 -33 108 -1 125 0 150 14 27 14 27 14
-23 19 -54 7 -172 7 -191 0z"/>
<path d="M3920 2210 c0 -5 -7 -10 -15 -10 -8 0 -15 -4 -15 -10 0 -14 53 -13
85 2 37 17 31 28 -15 28 -22 0 -40 -4 -40 -10z"/>
<path d="M3840 2200 c0 -5 7 -10 15 -10 8 0 15 5 15 10 0 6 -7 10 -15 10 -8 0
-15 -4 -15 -10z"/>
<path d="M1160 2190 c0 -5 12 -10 26 -10 14 0 23 4 19 10 -3 6 -15 10 -26 10
-10 0 -19 -4 -19 -10z"/>
<path d="M1183 2162 c-21 -13 9 -41 35 -31 30 11 28 21 -3 13 -20 -5 -24 -3
-19 10 7 18 5 19 -13 8z"/>
<path d="M3040 2150 c0 -5 4 -10 9 -10 6 0 13 5 16 10 3 6 -1 10 -9 10 -9 0
-16 -4 -16 -10z"/>
<path d="M965 2129 c-20 -13 -25 -19 -13 -19 25 0 68 22 62 31 -7 12 -14 10
-49 -12z"/>
<path d="M786 2124 c-5 -14 -4 -15 9 -4 17 14 19 20 6 20 -5 0 -12 -7 -15 -16z"/>
<path d="M2950 2110 c0 -5 5 -10 11 -10 5 0 7 5 4 10 -3 6 -8 10 -11 10 -2 0
-4 -4 -4 -10z"/>
<path d="M885 2090 c-16 -11 -39 -20 -50 -21 -14 -1 -15 -3 -5 -6 18 -4 86 22
95 37 10 16 -7 12 -40 -10z"/>
<path d="M1116 2073 c-3 -3 -3 -10 0 -14 7 -12 44 -12 44 0 0 10 -36 21 -44
14z"/>
<path d="M765 2050 c-3 -6 1 -7 9 -4 18 7 21 14 7 14 -6 0 -13 -4 -16 -10z"/>
<path d="M2830 2050 c-25 -4 -48 -6 -52 -4 -4 3 -9 0 -13 -5 -3 -6 -12 -8 -20
-5 -7 3 -22 1 -32 -5 -15 -9 -13 -11 17 -12 19 -1 52 -1 74 0 21 1 44 -3 51
-9 15 -13 96 -11 113 3 10 8 10 12 0 18 -7 4 -18 3 -26 -3 -9 -8 -18 -6 -33
10 -11 12 -23 21 -27 21 -4 -1 -27 -5 -52 -9z"/>
<path d="M873 2040 c-25 -10 -26 -11 -17 -34 8 -22 24 -20 24 2 0 10 5 23 12
30 14 14 11 14 -19 2z"/>
<path d="M1027 2043 c-6 -13 20 -56 27 -44 4 5 14 7 24 4 15 -6 15 -5 3 11
-18 22 -49 38 -54 29z"/>
<path d="M646 2025 c25 -19 34 -19 34 0 0 10 -10 15 -27 15 -26 0 -26 -1 -7
-15z"/>
<path d="M1307 2033 c-4 -3 -7 -11 -7 -17 0 -6 5 -5 12 2 6 6 9 14 7 17 -3 3
-9 2 -12 -2z"/>
<path d="M2635 2020 c-3 -5 -1 -10 4 -10 6 0 11 5 11 10 0 6 -2 10 -4 10 -3 0
-8 -4 -11 -10z"/>
<path d="M620 2010 c0 -5 4 -10 9 -10 6 0 13 5 16 10 3 6 -1 10 -9 10 -9 0
-16 -4 -16 -10z"/>
<path d="M1330 1998 c0 -3 -3 -15 -7 -25 -6 -17 -6 -17 14 0 11 9 25 17 31 17
7 0 12 3 12 8 0 4 -11 7 -25 7 -14 0 -25 -3 -25 -7z"/>
<path d="M940 1970 c0 -5 5 -10 11 -10 5 0 7 5 4 10 -3 6 -8 10 -11 10 -2 0
-4 -4 -4 -10z"/>
<path d="M1385 1970 c-4 -6 6 -10 22 -10 22 0 25 2 13 10 -19 12 -27 12 -35 0z"/>
<path d="M1448 1963 c7 -3 16 -2 19 1 4 3 -2 6 -13 5 -11 0 -14 -3 -6 -6z"/>
<path d="M2895 1950 c-3 -5 1 -10 10 -10 9 0 13 5 10 10 -3 6 -8 10 -10 10 -2
0 -7 -4 -10 -10z"/>
<path d="M1313 1943 c9 -2 25 -2 35 0 9 3 1 5 -18 5 -19 0 -27 -2 -17 -5z"/>
<path d="M1410 1931 c38 -11 31 -34 -10 -35 -33 -1 -49 -10 -50 -28 0 -16 83
-8 102 9 13 11 22 13 29 6 7 -7 1 -13 -18 -21 -74 -27 -70 -25 -46 -29 12 -2
24 -12 26 -21 4 -13 5 -12 6 4 1 15 10 23 31 28 37 7 49 32 25 50 -14 10 -15
15 -5 21 21 13 -10 25 -65 24 -37 -1 -44 -3 -25 -8z m70 -15 c0 -11 -19 -15
-25 -6 -3 5 1 10 9 10 9 0 16 -2 16 -4z"/>
<path d="M3018 1927 c-14 -14 -27 -15 -69 -2 -21 6 -20 4 6 -14 16 -11 42 -26
57 -32 30 -12 36 -24 16 -32 -7 -3 13 -6 45 -6 43 -1 58 2 55 12 -3 6 -18 15
-34 18 l-29 7 27 1 c15 0 30 -3 33 -9 3 -5 22 -10 42 -10 29 0 33 3 24 14 -6
7 -25 16 -43 20 -17 3 -37 14 -44 24 -13 16 -15 16 -28 0 -17 -23 -28 -23 -24
-2 4 22 -16 28 -34 11z m22 -27 c0 -5 -2 -10 -4 -10 -3 0 -8 5 -11 10 -3 6 -1
10 4 10 6 0 11 -4 11 -10z"/>
<path d="M2880 1905 c33 -19 50 -18 26 0 -11 8 -27 15 -35 15 -10 -1 -7 -6 9
-15z"/>
<path d="M3300 1895 c0 -8 2 -15 4 -15 2 0 6 7 10 15 3 8 1 15 -4 15 -6 0 -10
-7 -10 -15z"/>
<path d="M1327 1893 c-4 -3 -7 -11 -7 -17 0 -6 5 -5 12 2 6 6 9 14 7 17 -3 3
-9 2 -12 -2z"/>
<path d="M2720 1890 c0 -5 5 -10 11 -10 5 0 7 5 4 10 -3 6 -8 10 -11 10 -2 0
-4 -4 -4 -10z"/>
<path d="M1715 1880 c-3 -5 3 -10 15 -10 12 0 18 5 15 10 -3 6 -10 10 -15 10
-5 0 -12 -4 -15 -10z"/>
<path d="M2930 1880 c0 -12 28 -25 36 -17 3 3 -4 10 -15 17 -15 7 -21 7 -21 0z"/>
<path d="M2985 1850 c3 -5 8 -10 11 -10 2 0 4 5 4 10 0 6 -5 10 -11 10 -5 0
-7 -4 -4 -10z"/>
<path d="M2582 1811 c4 -13 18 -16 19 -4 0 4 -5 9 -11 12 -7 2 -11 -2 -8 -8z"/>
<path d="M1460 1735 c-9 -11 -10 -19 -3 -26 7 -7 12 -2 15 15 6 30 5 31 -12
11z"/>
<path d="M1533 1733 c9 -2 23 -2 30 0 6 3 -1 5 -18 5 -16 0 -22 -2 -12 -5z"/>
<path d="M1598 1733 c6 -2 18 -2 25 0 6 3 1 5 -13 5 -14 0 -19 -2 -12 -5z"/>
<path d="M1353 1680 c-6 -16 -9 -30 -6 -30 10 0 41 45 36 52 -9 15 -19 8 -30
-22z"/>
<path d="M1570 1695 c0 -8 5 -15 10 -15 6 0 10 7 10 15 0 8 -4 15 -10 15 -5 0
-10 -7 -10 -15z"/>
<path d="M1230 1679 c0 -5 5 -7 10 -4 6 3 10 8 10 11 0 2 -4 4 -10 4 -5 0 -10
-5 -10 -11z"/>
<path d="M280 1660 c-13 -8 -12 -10 3 -10 9 0 17 5 17 10 0 12 -1 12 -20 0z"/>
<path d="M1597 1663 c-12 -11 -8 -23 8 -23 8 0 15 7 15 15 0 16 -12 20 -23 8z"/>
<path d="M223 1643 c-10 -10 -29 -17 -43 -15 -24 3 -24 3 -8 -14 16 -16 19
-16 52 10 20 15 36 29 36 32 0 10 -21 3 -37 -13z"/>
<path d="M2370 1649 c0 -6 6 -9 14 -6 8 3 17 1 19 -6 2 -7 8 -9 12 -5 4 4 4
11 0 17 -8 14 -45 14 -45 0z"/>
<path d="M0 1628 c0 -4 11 -8 25 -8 19 0 25 -5 25 -22 0 -16 3 -19 11 -11 17
17 -5 48 -35 48 -14 1 -26 -3 -26 -7z"/>
<path d="M101 1624 c0 -11 3 -14 6 -6 3 7 2 16 -1 19 -3 4 -6 -2 -5 -13z"/>
<path d="M1145 1630 c3 -5 11 -10 16 -10 6 0 7 5 4 10 -3 6 -11 10 -16 10 -6
0 -7 -4 -4 -10z"/>
<path d="M1212 1629 c22 -5 47 -5 60 1 18 7 9 9 -37 8 -56 0 -58 -1 -23 -9z"/>
<path d="M588 1623 c7 -3 16 -2 19 1 4 3 -2 6 -13 5 -11 0 -14 -3 -6 -6z"/>
<path d="M870 1620 c-12 -8 -9 -10 13 -10 16 0 26 4 22 10 -8 12 -16 12 -35 0z"/>
<path d="M938 1613 c7 -3 16 -2 19 1 4 3 -2 6 -13 5 -11 0 -14 -3 -6 -6z"/>
<path d="M155 1590 c3 -5 8 -10 11 -10 2 0 4 5 4 10 0 6 -5 10 -11 10 -5 0 -7
-4 -4 -10z"/>
<path d="M528 1593 c7 -3 16 -2 19 1 4 3 -2 6 -13 5 -11 0 -14 -3 -6 -6z"/>
<path d="M820 1589 c0 -5 5 -7 10 -4 6 3 10 8 10 11 0 2 -4 4 -10 4 -5 0 -10
-5 -10 -11z"/>
<path d="M3258 1103 c12 -2 30 -2 40 0 9 3 -1 5 -23 4 -22 0 -30 -2 -17 -4z"/>
<path d="M3355 1085 c31 -11 101 -16 305 -19 215 -3 272 -7 303 -20 36 -16 37
-16 37 3 0 27 -17 29 -305 36 -132 3 -271 8 -310 10 l-70 5 40 -15z"/>
<path d="M2670 940 c0 -5 4 -10 9 -10 6 0 13 5 16 10 3 6 -1 10 -9 10 -9 0
-16 -4 -16 -10z"/>
<path d="M3153 827 c-45 -15 -42 -31 4 -22 46 8 55 13 48 26 -7 10 -8 10 -52
-4z"/>
<path d="M3325 820 c-3 -5 1 -10 10 -10 9 0 13 5 10 10 -3 6 -8 10 -10 10 -2
0 -7 -4 -10 -10z"/>
<path d="M3742 813 c-25 -3 -45 -10 -49 -19 -5 -15 -90 -44 -132 -45 -22 0
-23 -1 -7 -8 11 -4 20 -17 21 -28 1 -16 -5 -20 -27 -21 -15 0 -35 -7 -43 -15
-23 -23 -148 -42 -176 -26 -17 9 -24 9 -27 0 -2 -6 -15 -11 -28 -11 -45 0 -24
-19 49 -44 9 -3 21 -16 27 -30 5 -13 14 -27 20 -31 9 -6 9 -10 -1 -16 -11 -8
-11 -11 4 -20 10 -6 22 -22 27 -35 6 -16 20 -27 39 -30 17 -4 31 -14 34 -25 4
-16 2 -17 -15 -8 -13 7 -18 7 -14 1 3 -6 3 -17 0 -26 -5 -13 -9 -14 -20 -5
-10 8 -18 8 -27 1 -7 -6 -32 -9 -55 -7 -29 3 -41 1 -39 -8 1 -7 -11 -13 -26
-15 -22 -3 -28 0 -25 14 4 25 -18 28 -41 5 -17 -17 -20 -17 -25 -4 -4 11 -10
12 -19 5 -21 -17 -71 -22 -87 -9 -10 8 -17 32 -18 67 -3 63 -25 98 -43 67 -9
-16 -12 -16 -32 -2 -27 19 -41 19 -33 0 3 -9 0 -15 -9 -15 -9 0 -15 10 -15 25
0 21 -5 25 -27 25 -27 1 -27 1 -8 16 18 14 15 15 -40 9 -98 -11 -168 -24 -179
-35 -15 -15 -29 -12 -22 5 3 9 0 15 -9 15 -8 0 -15 -7 -15 -15 0 -8 -7 -15
-15 -15 -9 0 -27 -7 -40 -16 -14 -9 -31 -14 -39 -11 -8 3 -17 1 -19 -6 -3 -8
-12 -5 -28 10 -19 18 -20 24 -9 37 7 9 8 16 2 16 -18 0 -31 -26 -25 -50 l6
-24 -31 24 c-17 14 -31 30 -31 37 -1 6 -7 13 -13 15 -7 3 6 8 29 11 23 4 45
12 49 18 5 8 -1 10 -17 6 -54 -13 -202 -20 -195 -9 8 13 -163 7 -259 -9 -33
-5 -103 -15 -155 -21 -67 -8 -98 -16 -104 -27 -14 -23 -18 -81 -6 -81 8 0 13
28 9 56 -1 7 22 24 33 24 4 0 2 -15 -3 -32 -12 -43 -11 -61 1 -53 7 4 8 -3 4
-20 -6 -24 -4 -25 19 -20 14 4 28 2 31 -4 4 -5 14 -8 24 -5 9 2 6 -1 -7 -8
-20 -10 -25 -10 -29 1 -3 8 -11 3 -23 -16 -10 -15 -19 -23 -19 -18 0 6 -10 11
-22 13 -107 12 -138 8 -99 -12 26 -14 211 -11 220 3 4 5 19 13 34 16 23 6 27
4 27 -14 0 -20 4 -21 118 -20 123 2 136 6 157 54 8 17 9 16 13 -12 3 -33 22
-47 22 -18 0 10 10 15 31 15 19 0 37 7 45 18 12 16 13 15 14 -5 0 -13 4 -23
10 -23 5 0 7 7 4 15 -4 8 1 17 10 21 9 3 16 13 16 21 0 8 3 13 8 11 48 -24 62
-32 62 -40 0 -4 -4 -8 -10 -8 -5 0 -10 5 -10 10 0 6 -4 10 -10 10 -5 0 -7 -7
-4 -15 4 -10 0 -15 -12 -16 -11 0 -13 -3 -7 -6 7 -2 15 -4 19 -3 4 1 14 -10
24 -25 21 -33 23 -33 43 -16 14 11 18 11 23 -2 3 -9 2 -22 -3 -29 -4 -7 -8
-22 -8 -33 0 -14 -9 -22 -30 -26 -32 -7 -27 -11 18 -13 20 -1 27 3 27 16 0 21
18 24 26 4 3 -8 14 -13 25 -11 15 3 17 1 10 -12 -5 -10 -24 -17 -50 -18 -44
-2 -91 -22 -91 -37 0 -5 8 -7 18 -4 9 3 24 1 31 -4 10 -5 -12 -8 -62 -8 -52 1
-81 5 -88 14 -6 8 -27 14 -45 14 -19 0 -34 5 -34 11 0 7 -10 5 -25 -5 -31 -20
-51 -20 -59 -1 -4 12 -16 14 -48 10 -51 -6 -63 -15 -20 -15 34 0 40 -8 20 -29
-11 -10 2 -12 69 -10 133 5 119 -15 -17 -25 -36 -3 -86 -8 -111 -11 -28 -4
-92 1 -170 14 -68 12 -149 22 -180 23 -42 2 -55 6 -52 15 7 17 -14 17 -24 -1
-10 -16 -89 -30 -98 -16 -3 5 -28 10 -55 10 -27 0 -61 5 -77 11 -15 7 -53 14
-83 15 -113 8 -145 11 -163 19 -10 4 -48 3 -85 -2 -37 -6 -107 -8 -157 -6 -49
2 -163 5 -251 6 -98 2 -167 7 -175 14 -8 6 -31 13 -51 15 -30 3 -39 0 -44 -14
-3 -10 -10 -18 -15 -18 -5 0 -23 -9 -38 -21 -36 -27 -119 -43 -138 -28 -20 17
-16 34 10 35 29 2 51 8 57 15 3 3 16 13 30 23 l25 18 -24 -5 c-14 -4 -32 -1
-40 6 -12 10 -14 9 -8 -7 7 -18 6 -18 -17 -2 -14 9 -32 16 -41 16 -8 0 -15 5
-15 10 0 6 9 10 20 10 11 0 20 -4 20 -10 0 -16 24 -12 41 7 9 10 25 23 35 30
16 10 13 12 -23 11 -30 -1 -43 -6 -43 -16 0 -10 -5 -8 -18 7 -12 15 -24 19
-40 15 -21 -6 -21 -8 -5 -19 15 -11 15 -13 -6 -25 -17 -8 -30 -9 -45 -2 -11 6
-40 15 -63 20 l-43 10 0 -30 c0 -18 8 -37 18 -44 16 -13 16 -13 0 -14 -16 0
-18 -11 -18 -85 l0 -85 460 0 c300 0 460 3 460 10 0 6 6 10 13 10 8 0 27 7 43
14 38 19 156 47 214 50 25 2 68 -5 95 -15 28 -10 44 -18 36 -18 -7 -1 -11 -7
-8 -15 7 -18 -27 -28 -42 -13 -8 8 -14 8 -22 0 -6 -6 -17 -9 -25 -6 -7 2 -21
0 -31 -5 -11 -7 232 -10 737 -11 823 -1 796 -2 960 59 47 17 110 38 140 46 91
25 294 95 305 105 5 5 23 9 40 9 16 0 45 4 62 9 32 9 33 8 39 -26 5 -28 9 -32
16 -19 5 8 8 26 6 38 -2 13 -1 24 2 25 3 1 19 7 35 14 44 17 105 28 105 18 0
-13 28 -11 32 3 2 6 30 12 64 14 32 1 46 0 29 -2 -70 -11 -109 -43 -90 -74 9
-15 14 -59 6 -58 -18 2 -31 -3 -31 -13 0 -6 12 -8 33 -5 17 3 26 3 19 0 -6 -3
-9 -10 -6 -15 3 -6 -6 -8 -23 -4 -23 4 -24 4 -8 -4 11 -5 32 -10 48 -10 15 -1
27 -4 27 -8 0 -5 24 -9 54 -10 36 -1 71 -10 103 -27 55 -29 31 -37 -32 -10
-47 19 -177 11 -275 -18 -36 -11 -78 -23 -95 -28 -19 -5 58 -8 203 -9 128 -1
231 3 228 8 -3 4 12 7 34 6 l40 -2 0 398 c0 346 -2 398 -15 393 -8 -3 -13 -11
-12 -16 1 -6 -11 -14 -26 -19 -22 -6 -30 -3 -40 12 -12 20 -33 25 -39 10 -1
-5 -21 -1 -42 10 -22 10 -40 18 -40 17 -1 -1 -20 -3 -44 -5z m-108 -99 c10
-25 1 -27 -25 -5 -24 20 -24 20 -3 21 12 0 25 -7 28 -16z m-1269 -174 c-3 -5
-12 -10 -18 -10 -7 0 -6 4 3 10 19 12 23 12 15 0z m-180 -20 c3 -5 1 -10 -4
-10 -6 0 -11 5 -11 10 0 6 2 10 4 10 3 0 8 -4 11 -10z m125 -29 c0 -12 -35
-20 -50 -11 -9 6 -8 9 6 13 32 8 44 7 44 -2z m149 -57 c-12 -15 -11 -16 9 -10
32 11 27 0 -9 -18 -28 -14 -30 -14 -25 0 3 9 6 22 6 30 0 8 7 14 16 14 14 0
15 -2 3 -16z m111 -13 c0 -5 -7 -17 -16 -25 -17 -17 -64 -22 -64 -7 0 16 20
23 33 12 9 -7 16 -5 25 10 13 20 22 25 22 10z m950 -67 c0 -2 -7 -4 -15 -4 -8
0 -15 4 -15 10 0 5 7 7 15 4 8 -4 15 -8 15 -10z m-850 -11 c0 -5 -7 -17 -15
-27 -8 -11 -15 -28 -15 -37 0 -21 -16 -33 -31 -23 -8 5 -6 10 5 16 20 11 21
28 1 28 -8 0 -15 5 -15 11 0 7 9 9 21 6 15 -4 23 0 26 14 5 18 23 28 23 12z
m136 -28 c0 -14 -4 -25 -8 -25 -5 0 -8 -9 -8 -20 0 -11 -4 -20 -10 -20 -12 0
-12 6 1 53 11 42 28 50 25 12z m-60 -57 c-14 -20 -16 -20 -22 -4 -4 10 -3 21
3 25 5 3 13 15 18 26 8 19 9 19 12 -2 3 -13 -3 -33 -11 -45z m424 43 c0 -12
-20 -25 -27 -18 -7 7 6 27 18 27 5 0 9 -4 9 -9z m-505 -51 c3 -5 1 -10 -4 -10
-6 0 -11 5 -11 10 0 6 2 10 4 10 3 0 8 -4 11 -10z m-69 -79 c-3 -5 16 -12 44
-16 56 -8 61 -15 25 -39 -26 -17 -67 -20 -100 -7 -19 8 -19 8 0 19 11 6 14 12
8 12 -20 0 -15 28 5 33 9 3 18 5 20 6 2 0 1 -3 -2 -8z m-2426 -45 c0 -2 3 -11
6 -20 3 -9 1 -16 -5 -16 -6 0 -11 6 -11 14 0 8 -10 17 -22 19 -20 4 -19 4 5 6
15 0 27 -1 27 -3z m830 -21 c-33 -19 -50 -18 -26 0 11 8 27 15 35 15 10 -1 7
-6 -9 -15z m295 6 c-18 -7 -55 -4 -55 5 0 2 17 4 38 3 28 0 32 -2 17 -8z
m-1147 -13 c-2 -5 -7 -9 -11 -9 -4 1 -14 1 -22 1 -26 0 -16 15 10 16 15 1 25
-2 23 -8z"/>
<path d="M3925 810 c-4 -6 -3 -16 3 -22 13 -13 23 4 13 21 -7 10 -10 10 -16 1z"/>
<path d="M3259 808 c-7 -25 -5 -36 7 -31 8 3 11 9 8 14 -3 5 2 6 10 3 9 -3 16
-1 16 5 0 9 -38 17 -41 9z"/>
<path d="M3043 783 c-1 -13 6 -18 23 -18 13 0 22 5 20 10 -2 6 -9 9 -15 8 -6
-2 -11 2 -11 7 0 18 -16 11 -17 -7z"/>
<path d="M3233 753 c9 -2 25 -2 35 0 9 3 1 5 -18 5 -19 0 -27 -2 -17 -5z"/>
<path d="M3420 756 c0 -2 9 -6 20 -9 11 -3 20 -1 20 4 0 5 -9 9 -20 9 -11 0
-20 -2 -20 -4z"/>
<path d="M738 733 c7 -3 16 -2 19 1 4 3 -2 6 -13 5 -11 0 -14 -3 -6 -6z"/>
<path d="M1310 720 c0 -5 5 -10 10 -10 6 0 10 5 10 10 0 6 -4 10 -10 10 -5 0
-10 -4 -10 -10z"/>
<path d="M1614 702 c-18 -15 -35 -42 -39 -60 -4 -20 -16 -37 -33 -46 l-27 -14
28 -11 c32 -13 61 -14 71 -4 8 8 77 33 91 32 6 0 -6 -14 -25 -30 -31 -28 -32
-30 -10 -24 13 4 50 7 81 7 l57 -1 -11 29 c-7 19 -27 38 -57 53 -25 13 -51 34
-57 48 -7 13 -13 20 -13 14 0 -5 -6 0 -13 12 l-12 21 -31 -26z"/>
<path d="M3285 720 c-3 -5 -1 -10 4 -10 6 0 11 5 11 10 0 6 -2 10 -4 10 -3 0
-8 -4 -11 -10z"/>
<path d="M1343 690 c-18 -11 -40 -17 -50 -13 -11 4 -14 3 -9 -5 4 -7 14 -12
23 -12 9 0 13 -6 9 -15 -8 -21 18 -19 40 3 17 16 18 16 11 0 -3 -10 -3 -18 1
-19 49 -5 69 -2 84 13 15 15 16 21 6 38 -7 11 -23 20 -35 20 -12 0 -27 2 -35
4 -7 3 -28 -4 -45 -14z m54 -6 c-3 -3 -12 -4 -19 -1 -8 3 -5 6 6 6 11 1 17 -2
13 -5z"/>
<path d="M1531 661 c-10 -6 -10 -10 -1 -16 13 -8 24 -1 19 14 -3 6 -10 7 -18
2z"/>
<path d="M2643 659 c-18 -5 -33 -14 -33 -19 0 -5 8 -7 18 -4 9 3 -2 -5 -25
-19 -23 -14 -50 -27 -59 -29 -10 -2 -19 -9 -22 -17 -4 -11 0 -12 14 -6 11 4
39 11 64 15 87 16 118 38 104 75 -7 17 -15 17 -61 4z"/>
<path d="M3245 660 c-7 -12 2 -12 30 0 19 8 19 9 -2 9 -12 1 -25 -3 -28 -9z"/>
<path d="M2057 642 c-10 -10 -17 -22 -17 -27 0 -4 -8 -14 -17 -22 -16 -12 -13
-13 22 -7 63 9 73 13 78 35 4 15 -1 23 -19 30 -32 11 -28 12 -47 -9z"/>
<path d="M2310 640 c-13 -9 -7 -14 12 -11 4 0 4 -7 1 -16 -5 -12 -2 -15 10
-10 9 3 19 2 22 -3 7 -12 75 -13 92 -2 27 17 -30 52 -84 52 -21 0 -45 -5 -53
-10z"/>
<path d="M1865 620 c28 -12 37 -12 30 0 -3 6 -16 10 -28 9 -21 0 -21 -1 -2 -9z"/>
<path d="M857 548 c-37 -20 -38 -21 -20 -42 10 -11 11 -16 4 -9 -7 6 -19 9
-27 6 -9 -3 -12 2 -9 16 5 25 -7 27 -25 6 -14 -17 -35 -21 -25 -5 4 7 -3 8
-22 4 -37 -9 -38 -11 -24 -28 7 -8 19 -12 26 -10 8 3 20 2 27 -3 18 -11 97
-13 104 -2 3 5 14 4 25 -1 13 -7 19 -7 19 0 0 5 -7 10 -15 10 -22 0 -40 39
-21 46 11 4 34 37 23 33 -1 0 -19 -10 -40 -21z"/>
<path d="M183 523 c9 -2 25 -2 35 0 9 3 1 5 -18 5 -19 0 -27 -2 -17 -5z"/>
<path d="M1666 504 c-9 -24 -7 -27 9 -10 17 17 19 26 6 26 -5 0 -12 -7 -15
-16z"/>
<path d="M2 453 l1 -32 25 19 c18 15 29 17 42 10 29 -15 47 -12 53 10 3 11 2
20 -1 21 -4 0 -33 1 -64 2 l-57 3 1 -33z"/>
<path d="M156 474 c-3 -9 -6 -17 -6 -18 0 -1 14 -1 30 2 18 3 30 0 30 -7 0 -6
9 -11 20 -11 13 0 18 5 14 15 -4 11 1 15 17 16 l24 1 -25 8 c-45 14 -97 11
-104 -6z"/>
<path d="M1610 470 c0 -6 -11 -8 -25 -4 -19 5 -30 0 -43 -17 -15 -18 -28 -22
-62 -21 -57 3 -66 12 -11 12 26 0 40 4 36 10 -8 13 -48 13 -79 -1 -19 -9 -29
-8 -47 5 -29 20 -50 21 -43 2 9 -23 -13 -26 -183 -26 -12 0 -25 5 -28 10 -9
15 -68 12 -90 -4 -16 -12 -10 -14 57 -20 41 -4 140 -7 219 -6 212 3 222 2 216
-13 -7 -18 38 -10 71 11 20 13 25 13 42 -3 10 -9 16 -23 13 -31 -3 -8 0 -14 6
-14 6 0 11 6 11 13 0 9 9 12 29 9 20 -3 30 1 35 13 5 15 4 16 -8 6 -26 -21
-64 11 -58 48 l4 26 -17 -22 c-16 -23 -45 -31 -45 -13 0 6 5 10 10 10 6 0 10
7 10 15 0 8 -4 15 -10 15 -5 0 -10 -5 -10 -10z"/>
<path d="M1701 454 c0 -11 3 -14 6 -6 3 7 2 16 -1 19 -3 4 -6 -2 -5 -13z"/>
<path d="M964 434 c3 -9 6 -18 6 -20 0 -2 9 -4 20 -4 11 0 20 5 20 10 0 6 -7
10 -15 10 -8 0 -15 5 -15 10 0 6 -5 10 -11 10 -6 0 -8 -7 -5 -16z"/>
<path d="M35 430 c3 -5 10 -10 16 -10 5 0 9 5 9 10 0 6 -7 10 -16 10 -8 0 -12
-4 -9 -10z"/>
<path d="M857 428 c-7 -4 9 -8 36 -8 26 0 47 2 47 4 0 8 -71 12 -83 4z"/>
<path d="M330 380 c-20 -5 -14 -8 30 -14 55 -7 94 -1 85 13 -5 10 -82 10 -115
1z"/>
<path d="M1596 371 c-11 -4 -15 -10 -10 -13 10 -6 54 8 54 17 0 7 -21 5 -44
-4z"/>
<path d="M442 339 c5 -16 68 -25 68 -10 0 6 -6 11 -12 11 -7 0 -24 3 -37 7
-18 4 -23 2 -19 -8z"/>
<path d="M2260 323 c0 -17 12 -16 36 2 18 14 18 14 -8 13 -16 -1 -28 -8 -28
-15z"/>
<path d="M268 323 c7 -3 16 -2 19 1 4 3 -2 6 -13 5 -11 0 -14 -3 -6 -6z"/>
<path d="M1 316 c9 -10 169 -34 169 -25 0 4 -11 10 -25 13 -40 10 -151 19
-144 12z"/>
<path d="M2394 309 c-3 -6 1 -18 10 -27 15 -15 16 -14 16 11 0 27 -13 36 -26
16z"/>
<path d="M576 285 c4 -8 8 -15 10 -15 2 0 4 7 4 15 0 8 -4 15 -10 15 -5 0 -7
-7 -4 -15z"/>
<path d="M80 270 c0 -5 5 -10 11 -10 5 0 7 5 4 10 -3 6 -8 10 -11 10 -2 0 -4
-4 -4 -10z"/>
<path d="M509 276 c-2 -2 -44 -7 -93 -10 -50 -4 -92 -8 -94 -10 -2 -2 12 -7
30 -11 18 -4 37 -10 42 -13 5 -3 37 -6 70 -7 68 -1 105 17 85 42 -11 12 -31
17 -40 9z"/>
<path d="M1970 260 c0 -5 6 -10 14 -10 8 0 18 5 21 10 3 6 -3 10 -14 10 -12 0
-21 -4 -21 -10z"/>
<path d="M285 220 c28 -12 47 -12 40 0 -3 6 -18 10 -33 9 -24 0 -25 -1 -7 -9z"/>
<path d="M1100 226 c0 -2 7 -6 15 -10 8 -3 15 -1 15 4 0 6 -7 10 -15 10 -8 0
-15 -2 -15 -4z"/>
<path d="M3640 189 c0 -5 5 -7 10 -4 6 3 10 8 10 11 0 2 -4 4 -10 4 -5 0 -10
-5 -10 -11z"/>
<path d="M300 170 c-9 -6 -10 -10 -3 -10 6 0 15 5 18 10 8 12 4 12 -15 0z"/>
<path d="M2018 153 c6 -2 18 -2 25 0 6 3 1 5 -13 5 -14 0 -19 -2 -12 -5z"/>
<path d="M3538 153 c12 -2 32 -2 45 0 12 2 2 4 -23 4 -25 0 -35 -2 -22 -4z"/>
<path d="M1473 133 c9 -2 23 -2 30 0 6 3 -1 5 -18 5 -16 0 -22 -2 -12 -5z"/>
<path d="M3105 10 c-15 -6 -6 -9 33 -9 33 -1 51 3 47 9 -7 12 -52 12 -80 0z"/>
</g>
</svg>
